<!-- April Desy -->
<svg width="220" height="220" xmlns="http://www.w3.org/2000/svg">

    <rect height="100%" width="5%" fill="#ea1512" x="0" y="0" rx="10" ry="5"></rect>
    <rect height="100%" width="5%" fill="#ea1512" x="209" y="0" rx="10" ry="5"></rect>

    
    <rect height="25%" width="100%" fill="#ea1512" x="0" y="0" rx="5" ry="10"></rect>
    <rect height="10%" width="100%" fill="#ea1512" x="0" y="198" rx="5" ry="10"></rect>

    <circle r="10" cx="50" cy="25" fill="#FFFFFF"></circle>
    <circle r="10" cx="170" cy="25" fill="#FFFFFF"></circle>

    <svg xmlns="http://www.w3.org/2000/svg" width="224" height="224">
    <path d="M0 0 C5.30215995 2.44325153 8.97399831 6.05346536 11.60546875 11.31640625 C11.92195266 14.65706975 12.116754 17.99858236 12.32421875 21.34765625 C12.41834937 24.24288635 12.41834937 24.24288635 13.60546875 26.31640625 C20.26278273 29.55971306 26.73301484 28.3589217 33.4921875 26.046875 C39.32392379 23.93705552 45.04563973 21.62252525 50.66796875 19.00390625 C54.33811781 17.30293332 57.58119087 16.65889798 61.60546875 16.31640625 C60.94761912 19.6132159 59.71126302 22.15758547 58.04296875 25.06640625 C57.58792969 25.865625 57.13289063 26.66484375 56.6640625 27.48828125 C56.31472656 28.0915625 55.96539062 28.69484375 55.60546875 29.31640625 C59.56546875 28.82140625 59.56546875 28.82140625 63.60546875 28.31640625 C64.83641932 32.00925796 64.27910436 32.7241038 62.60546875 36.12890625 C60.01125337 41.12003049 57.0884618 43.97613692 52.60546875 47.31640625 C52.90005884 50.85148728 53.35428288 52.07844069 55.98046875 54.56640625 C65.15081573 60.6799709 79.27219856 56.7850944 89.60546875 55.31640625 C89.60546875 59.31640625 89.60546875 59.31640625 87.92578125 61.01953125 C87.20132813 61.53 86.476875 62.04046875 85.73046875 62.56640625 C85.01117188 63.0871875 84.291875 63.60796875 83.55078125 64.14453125 C81.60546875 65.31640625 81.60546875 65.31640625 79.60546875 65.31640625 C81.83146454 69.50127833 84.2253374 73.21947634 87.16796875 76.94140625 C92.27967689 83.41623657 92.27967689 83.41623657 93.60546875 86.31640625 C93.29296875 88.62890625 93.29296875 88.62890625 92.60546875 90.31640625 C92.60546875 89.65640625 92.60546875 88.99640625 92.60546875 88.31640625 C92.06092041 88.14117432 91.51637207 87.96594238 90.95532227 87.78540039 C84.61912703 85.71443398 78.44579227 83.33178597 72.26757812 80.83398438 C63.28191819 77.26923251 55.68290247 75.99158028 45.98046875 76.06640625 C44.96984375 76.05867188 43.95921875 76.0509375 42.91796875 76.04296875 C37.75762234 76.05651297 33.42800901 76.24254935 28.60546875 78.31640625 C28.60546875 78.97640625 28.60546875 79.63640625 28.60546875 80.31640625 C29.20359375 80.60515625 29.80171875 80.89390625 30.41796875 81.19140625 C32.60546875 82.31640625 32.60546875 82.31640625 35.60546875 84.31640625 C35.22251826 86.53751911 34.73626687 88.12020908 33.48046875 90.00390625 C30.63702873 91.99431426 28.000993 92.45712167 24.60546875 92.31640625 C21.73423002 91.60570359 18.95580224 90.76680281 16.15625 89.8125 C13.05580058 89.20950295 12.31997783 89.86901147 9.60546875 91.31640625 C6.58984375 91.51171875 6.58984375 91.51171875 3.35546875 91.44140625 C2.2778125 91.42335938 1.20015625 91.4053125 0.08984375 91.38671875 C-0.73 91.36351562 -1.54984375 91.3403125 -2.39453125 91.31640625 C-3.51171875 87.59765625 -3.51171875 87.59765625 -2.45703125 85.06640625 C-1.93109375 84.20015625 -1.93109375 84.20015625 -1.39453125 83.31640625 C-1.89984375 82.99027344 -2.40515625 82.66414063 -2.92578125 82.328125 C-3.57546875 81.89113281 -4.22515625 81.45414062 -4.89453125 81.00390625 C-5.8690625 80.36001953 -5.8690625 80.36001953 -6.86328125 79.703125 C-7.36859375 79.24550781 -7.87390625 78.78789062 -8.39453125 78.31640625 C-8.39453125 77.32640625 -8.39453125 76.33640625 -8.39453125 75.31640625 C-5.91953125 74.32640625 -5.91953125 74.32640625 -3.39453125 73.31640625 C-5.55509765 69.13979293 -7.81496175 67.03611925 -11.70703125 64.44140625 C-18.5334289 59.63764494 -23.18105636 55.53218692 -25.39453125 47.31640625 C-26.11439481 39.2576739 -25.60243028 32.7085214 -22.39453125 25.31640625 C-22.72453125 24.32640625 -23.05453125 23.33640625 -23.39453125 22.31640625 C-24.38453125 21.98640625 -25.37453125 21.65640625 -26.39453125 21.31640625 C-25.89953125 20.53265625 -25.40453125 19.74890625 -24.89453125 18.94140625 C-23.2291516 16.53088298 -23.2291516 16.53088298 -23.39453125 14.31640625 C-25.02079529 12.93408182 -26.68703145 11.5970311 -28.39453125 10.31640625 C-20.38266951 1.63688937 -12.05647094 -3.44189627 0 0 Z M-11.39453125 6.31640625 C-11.39453125 7.30640625 -11.39453125 8.29640625 -11.39453125 9.31640625 C-10.73453125 8.65640625 -10.07453125 7.99640625 -9.39453125 7.31640625 C-10.05453125 6.98640625 -10.71453125 6.65640625 -11.39453125 6.31640625 Z " fill="#ea1512" transform="translate(82.39453125,76.68359375)"/>
    <path d="M0 0 C5.30215995 2.44325153 8.97399831 6.05346536 11.60546875 11.31640625 C11.92195266 14.65706975 12.116754 17.99858236 12.32421875 21.34765625 C12.41834937 24.24288635 12.41834937 24.24288635 13.60546875 26.31640625 C20.26278273 29.55971306 26.73301484 28.3589217 33.4921875 26.046875 C39.32392379 23.93705552 45.04563973 21.62252525 50.66796875 19.00390625 C54.33811781 17.30293332 57.58119087 16.65889798 61.60546875 16.31640625 C60.94761912 19.6132159 59.71126302 22.15758547 58.04296875 25.06640625 C57.58792969 25.865625 57.13289063 26.66484375 56.6640625 27.48828125 C56.31472656 28.0915625 55.96539062 28.69484375 55.60546875 29.31640625 C54.94546875 29.31640625 54.28546875 29.31640625 53.60546875 29.31640625 C53.60546875 27.00640625 53.60546875 24.69640625 53.60546875 22.31640625 C48.76473215 22.79098827 45.65221379 23.65407399 41.60546875 26.31640625 C38.62188877 27.666121 36.90212571 28.31640625 33.60546875 28.31640625 C33.60546875 28.97640625 33.60546875 29.63640625 33.60546875 30.31640625 C31.06372898 30.34357449 28.5222846 30.36332594 25.98046875 30.37890625 C24.91119141 30.39147461 24.91119141 30.39147461 23.8203125 30.40429688 C19.63202437 30.42350921 15.73262255 30.14313895 11.60546875 29.31640625 C10.1599071 23.84392288 9.08984857 18.43355068 8.265625 12.83203125 C7.53704776 10.05567775 6.37705465 8.53692264 4.60546875 6.31640625 C4.60546875 5.65640625 4.60546875 4.99640625 4.60546875 4.31640625 C3.61546875 4.31640625 2.62546875 4.31640625 1.60546875 4.31640625 C1.60546875 3.65640625 1.60546875 2.99640625 1.60546875 2.31640625 C-0.43454098 2.09242892 -2.47669314 1.88792088 -4.51953125 1.69140625 C-5.65648438 1.57539062 -6.7934375 1.459375 -7.96484375 1.33984375 C-11.61351691 1.31490976 -14.08568561 1.79453363 -17.39453125 3.31640625 C-17.72453125 4.30640625 -18.05453125 5.29640625 -18.39453125 6.31640625 C-19.38453125 6.31640625 -20.37453125 6.31640625 -21.39453125 6.31640625 C-21.39453125 7.30640625 -21.39453125 8.29640625 -21.39453125 9.31640625 C-20.73453125 9.31640625 -20.07453125 9.31640625 -19.39453125 9.31640625 C-19.90114492 12.18721707 -20.542186 14.70497138 -21.58203125 17.44140625 C-21.85015625 18.39015625 -22.11828125 19.33890625 -22.39453125 20.31640625 C-21.73453125 21.30640625 -21.07453125 22.29640625 -20.39453125 23.31640625 C-20.19921875 25.578125 -20.19921875 25.578125 -20.26953125 28.00390625 C-20.28757812 28.81214844 -20.305625 29.62039062 -20.32421875 30.453125 C-20.35902344 31.37544922 -20.35902344 31.37544922 -20.39453125 32.31640625 C-21.38453125 32.81140625 -21.38453125 32.81140625 -22.39453125 33.31640625 C-22.42160264 35.56633984 -22.44095954 37.8163672 -22.45703125 40.06640625 C-22.46863281 41.319375 -22.48023438 42.57234375 -22.4921875 43.86328125 C-22.44144816 48.73776499 -22.44144816 48.73776499 -20.08203125 52.75390625 C-19.24671875 53.52734375 -19.24671875 53.52734375 -18.39453125 54.31640625 C-17.71390625 55.18265625 -17.03328125 56.04890625 -16.33203125 56.94140625 C-14.6158622 59.37672606 -14.6158622 59.37672606 -12.39453125 60.31640625 C-12.39453125 60.97640625 -12.39453125 61.63640625 -12.39453125 62.31640625 C-10.41453125 62.64640625 -8.43453125 62.97640625 -6.39453125 63.31640625 C-6.72453125 64.30640625 -7.05453125 65.29640625 -7.39453125 66.31640625 C-6.46640625 66.71859375 -6.46640625 66.71859375 -5.51953125 67.12890625 C-3.39453125 68.31640625 -3.39453125 68.31640625 -1.39453125 71.31640625 C-2.38453125 71.81140625 -2.38453125 71.81140625 -3.39453125 72.31640625 C-4.10609375 71.58164063 -4.81765625 70.846875 -5.55078125 70.08984375 C-8.21717249 67.48937977 -10.95782805 65.22642531 -13.89453125 62.94140625 C-19.23217758 58.6180566 -24.12925144 54.37468282 -25.39453125 47.31640625 C-25.91321657 39.21693553 -25.62307465 32.75609321 -22.39453125 25.31640625 C-22.72453125 24.32640625 -23.05453125 23.33640625 -23.39453125 22.31640625 C-24.38453125 21.98640625 -25.37453125 21.65640625 -26.39453125 21.31640625 C-25.89953125 20.53265625 -25.40453125 19.74890625 -24.89453125 18.94140625 C-23.2291516 16.53088298 -23.2291516 16.53088298 -23.39453125 14.31640625 C-25.02079529 12.93408182 -26.68703145 11.5970311 -28.39453125 10.31640625 C-20.38266951 1.63688937 -12.05647094 -3.44189627 0 0 Z " fill="#ea1512" transform="translate(82.39453125,76.68359375)"/>
    <path d="M0 0 C3.88758274 3.69879725 7.11991143 7.58442772 10.25 11.9375 C10.69601563 12.53240234 11.14203125 13.12730469 11.6015625 13.74023438 C14.28811128 17.4647679 15.62684564 20.29969032 16 25 C15.505 24.01 15.505 24.01 15 23 C13.1929578 22.21436081 13.1929578 22.21436081 11.00390625 21.59765625 C7.77385558 20.58103694 4.61160669 19.49779544 1.46484375 18.24609375 C0.71783203 17.94896484 -0.02917969 17.65183594 -0.79882812 17.34570312 C-2.31265862 16.73834231 -3.82567708 16.12895373 -5.33789062 15.51757812 C-15.38123818 11.53322503 -23.69718237 10.73227985 -34.5 10.875 C-35.799375 10.88402344 -37.09875 10.89304688 -38.4375 10.90234375 C-41.62519299 10.92578267 -44.8124982 10.9585956 -48 11 C-48 10.34 -48 9.68 -48 9 C-45.50072231 8.66029235 -43.00080405 8.32811968 -40.5 8 C-39.80390625 7.90460938 -39.1078125 7.80921875 -38.390625 7.7109375 C-30.44083349 6.68040897 -23.4309612 6.76158773 -15.6875 9 C-14.54692139 9.32133911 -14.54692139 9.32133911 -13.38330078 9.64916992 C-4.28509713 12.33225893 4.3524038 16.1363844 13 20 C12.505 18.515 12.505 18.515 12 17 C11.34 17 10.68 17 10 17 C8.78514615 15.27578573 7.65181296 13.49365116 6.5625 11.6875 C4.23699782 7.75994397 4.23699782 7.75994397 1.27734375 4.33203125 C0 3 0 3 0 0 Z " fill="#ea1512" transform="translate(160,142)"/>
<path d="M0 0 C-1.73047091 7.11965173 -4.6639407 11.95967411 -10 17 C-10.66 17.33 -11.32 17.66 -12 18 C-11.70540991 21.53508103 -11.25118587 22.76203444 -8.625 25.25 C-5.22848345 27.51434436 -2.761145 28.12596557 1.23046875 28.09765625 C2.03291016 28.09443359 2.83535156 28.09121094 3.66210938 28.08789062 C4.49548828 28.07951172 5.32886719 28.07113281 6.1875 28.0625 C7.4549707 28.05573242 7.4549707 28.05573242 8.74804688 28.04882812 C10.83206155 28.03705403 12.91603977 28.0191189 15 28 C12.79029004 30.50259312 12.25684984 30.96264002 8.77734375 31.46875 C0.87981862 31.53302284 -6.79833065 31.5891588 -13 26 C-14.59559909 23.07310351 -15.44301834 20.27762287 -16 17 C-15.01 16.34 -14.02 15.68 -13 15 C-10.7763932 13.0745356 -10.7763932 13.0745356 -10 10 C-8.68 10 -7.36 10 -6 10 C-5.566875 8.88625 -5.566875 8.88625 -5.125 7.75 C-4.17697356 5.43260203 -3.15154089 3.22082885 -2 1 C-3.32 0.67 -4.64 0.34 -6 0 C-3.50907189 -1.24546405 -2.58919267 -0.7767578 0 0 Z " fill="#ea1512" transform="translate(147,106)"/>
<path d="M0 0 C0.66 0.66 1.32 1.32 2 2 C0.68 2.33 -0.64 2.66 -2 3 C-1.236875 3.598125 -0.47375 4.19625 0.3125 4.8125 C2.3483575 6.46959332 4.1978279 8.10297674 6 10 C5.01 12.31 4.02 14.62 3 17 C3.78503906 16.7834375 4.57007812 16.566875 5.37890625 16.34375 C13.72863807 14.13081494 19.71411135 13.11795177 28 16 C31.83937792 16.35715143 32.68162771 16.21224819 36 14 C35.505 11.525 35.505 11.525 35 9 C36.32 9.66 37.64 10.32 39 11 C38.61704951 13.22111286 38.13079812 14.80380283 36.875 16.6875 C34.03155998 18.67790801 31.39552425 19.14071542 28 19 C25.12876127 18.28929734 22.35033349 17.45039656 19.55078125 16.49609375 C16.45033183 15.8930967 15.71450908 16.55260522 13 18 C9.984375 18.1953125 9.984375 18.1953125 6.75 18.125 C5.67234375 18.10695312 4.5946875 18.08890625 3.484375 18.0703125 C2.66453125 18.04710937 1.8446875 18.02390625 1 18 C-0.1171875 14.28125 -0.1171875 14.28125 0.9375 11.75 C1.288125 11.1725 1.63875 10.595 2 10 C1.4946875 9.67386719 0.989375 9.34773437 0.46875 9.01171875 C-0.50578125 8.35623047 -0.50578125 8.35623047 -1.5 7.6875 C-2.47453125 7.04361328 -2.47453125 7.04361328 -3.46875 6.38671875 C-4.22671875 5.70029297 -4.22671875 5.70029297 -5 5 C-5 4.01 -5 3.02 -5 2 C-3.35 1.34 -1.7 0.68 0 0 Z " fill="#ea1512" transform="translate(79,150)"/>
<path d="M0 0 C0 3 0 3 -1 6 C-0.34 6 0.32 6 1 6 C0.49338633 8.87081082 -0.14765475 11.38856513 -1.1875 14.125 C-1.455625 15.07375 -1.72375 16.0225 -2 17 C-1.34 17.99 -0.68 18.98 0 20 C0.1953125 22.26171875 0.1953125 22.26171875 0.125 24.6875 C0.10695313 25.49574219 0.08890625 26.30398437 0.0703125 27.13671875 C0.03550781 28.05904297 0.03550781 28.05904297 0 29 C-0.66 29.33 -1.32 29.66 -2 30 C-2.66 29.67 -3.32 29.34 -4 29 C-3.649375 27.906875 -3.29875 26.81375 -2.9375 25.6875 C-1.66960546 22.09079627 -1.66960546 22.09079627 -3 19 C-3.99 18.67 -4.98 18.34 -6 18 C-5.505 17.21625 -5.01 16.4325 -4.5 15.625 C-2.83462035 13.21447673 -2.83462035 13.21447673 -3 11 C-4.62626404 9.61767557 -6.2925002 8.28062485 -8 7 C-5.4837822 4.39391727 -2.94865641 2.10618315 0 0 Z " fill="#ea1512" transform="translate(62,80)"/>
<path d="M0 0 C5.30988288 2.42737503 8.98292472 6.05178693 11.61328125 11.3125 C11.78125 13.1875 11.78125 13.1875 11.80078125 15.3125 C11.81496094 16.01375 11.82914063 16.715 11.84375 17.4375 C11.61328125 19.3125 11.61328125 19.3125 9.61328125 21.3125 C9.50371094 20.56484375 9.39414063 19.8171875 9.28125 19.046875 C9.12269531 18.06203125 8.96414062 17.0771875 8.80078125 16.0625 C8.64996094 15.08796875 8.49914062 14.1134375 8.34375 13.109375 C7.5765985 10.17204628 6.49569788 8.64360223 4.61328125 6.3125 C4.61328125 5.6525 4.61328125 4.9925 4.61328125 4.3125 C3.62328125 4.3125 2.63328125 4.3125 1.61328125 4.3125 C1.61328125 3.6525 1.61328125 2.9925 1.61328125 2.3125 C-0.42672848 2.08852267 -2.46888064 1.88401463 -4.51171875 1.6875 C-5.64867188 1.57148437 -6.785625 1.45546875 -7.95703125 1.3359375 C-11.60570441 1.31100351 -14.07787311 1.79062738 -17.38671875 3.3125 C-17.71671875 4.3025 -18.04671875 5.2925 -18.38671875 6.3125 C-19.04671875 5.9825 -19.70671875 5.6525 -20.38671875 5.3125 C-19.45007381 2.97088764 -18.81571258 1.58939602 -16.66796875 0.203125 C-11.52736863 -1.80382162 -5.25517403 -1.51376535 0 0 Z " fill="#ea1512" transform="translate(82.38671875,76.6875)"/>
<path d="M0 0 C3.88758274 3.69879725 7.11991143 7.58442772 10.25 11.9375 C10.69601563 12.53240234 11.14203125 13.12730469 11.6015625 13.74023438 C14.28811128 17.4647679 15.62684564 20.29969032 16 25 C15.67 24.34 15.34 23.68 15 23 C13.2914614 22.26458495 13.2914614 22.26458495 11.1875 21.6875 C7.21582798 20.433961 3.35923194 19.00516889 -0.5 17.4375 C-1.5209375 17.02371094 -2.541875 16.60992187 -3.59375 16.18359375 C-6 15 -6 15 -7 13 C-2.15888235 13.58838199 1.96071195 15.07653116 6.375 17.0625 C7.01566406 17.34416016 7.65632812 17.62582031 8.31640625 17.91601562 C9.88029659 18.60459421 11.44053941 19.30144711 13 20 C12.67 19.01 12.34 18.02 12 17 C11.34 17 10.68 17 10 17 C8.78514615 15.27578573 7.65181296 13.49365116 6.5625 11.6875 C4.23699782 7.75994397 4.23699782 7.75994397 1.27734375 4.33203125 C0 3 0 3 0 0 Z " fill="#ea1512" transform="translate(160,142)"/>
<path d="M0 0 C0.99 0 1.98 0 3 0 C3 0.66 3 1.32 3 2 C3.99 2 4.98 2 6 2 C5.67 2.66 5.34 3.32 5 4 C4.34 3.67 3.68 3.34 3 3 C3 3.66 3 4.32 3 5 C1.02 5 -0.96 5 -3 5 C-2.67 5.99 -2.34 6.98 -2 8 C-3.32 8 -4.64 8 -6 8 C-7.3303125 8.2784375 -7.3303125 8.2784375 -8.6875 8.5625 C-9.450625 8.706875 -10.21375 8.85125 -11 9 C-12 8 -12 8 -12.0625 5.4375 C-12.041875 4.633125 -12.02125 3.82875 -12 3 C-8.25 1.875 -8.25 1.875 -6 3 C-6 3.66 -6 4.32 -6 5 C-5.34 5 -4.68 5 -4 5 C-4 4.34 -4 3.68 -4 3 C-3.01 3 -2.02 3 -1 3 C-0.67 2.01 -0.34 1.02 0 0 Z M-10 4 C-10 4.99 -10 5.98 -10 7 C-9.34 6.34 -8.68 5.68 -8 5 C-8.66 4.67 -9.32 4.34 -10 4 Z " fill="#ea1512" transform="translate(81,79)"/>
<path d="M0 0 C-1.50551342 4.21543758 -4.17944866 5.86049125 -8 8 C-9.32 8 -10.64 8 -12 8 C-12 7.34 -12 6.68 -12 6 C-9.69 5.01 -7.38 4.02 -5 3 C-5 2.67 -5 2.34 -5 2 C-6.65 1.67 -8.3 1.34 -10 1 C-10 0.67 -10 0.34 -10 0 C-2.25 -1.125 -2.25 -1.125 0 0 Z " fill="#ea1512" transform="translate(173,133)"/>
<path d="M0 0 C0.33 0 0.66 0 1 0 C1.20625 1.11375 1.4125 2.2275 1.625 3.375 C2.61015065 7.15601689 2.61015065 7.15601689 5.625 8.4375 C9.52822461 9.08803744 13.04725157 9.13630167 17 9 C17 9.66 17 10.32 17 11 C5.68490113 11.2012567 5.68490113 11.2012567 1 10 C-0.60725635 6.78548731 -0.05748185 3.56387464 0 0 Z " fill="#ea1512" transform="translate(93,96)"/>
<path d="M0 0 C1.32 0.66 2.64 1.32 4 2 C3.61704951 4.22111286 3.13079812 5.80380283 1.875 7.6875 C-0.9901979 9.69313853 -3.55359865 9.81861046 -7 10 C-9.22265625 9.01171875 -9.22265625 9.01171875 -11 8 C-10.38511719 7.95101562 -9.77023438 7.90203125 -9.13671875 7.8515625 C-8.32847656 7.77679688 -7.52023438 7.70203125 -6.6875 7.625 C-5.88699219 7.55539063 -5.08648437 7.48578125 -4.26171875 7.4140625 C-1.72775559 7.10435574 -1.72775559 7.10435574 1 5 C0.67 3.35 0.34 1.7 0 0 Z " fill="#ea1512" transform="translate(114,159)"/>
<path d="M0 0 C-1.875 4.75 -1.875 4.75 -3 7 C-4.32 6.34 -5.64 5.68 -7 5 C-7 3.35 -7 1.7 -7 0 C-4.3333581 -1.33332095 -2.83319697 -0.67102033 0 0 Z " fill="#ea1512" transform="translate(145,107)"/>
<path d="M0 0 C-2.63904371 1.41377341 -5.07120629 2.37240135 -8 3 C-8 3.66 -8 4.32 -8 5 C-9.98 5 -11.96 5 -14 5 C-14 4.34 -14 3.68 -14 3 C-9.07015675 0.96006486 -5.42039575 -0.40652968 0 0 Z " fill="#ea1512" transform="translate(124,102)"/>
<path d="M0 0 C-0.42257276 1.4835001 -0.86356322 2.96176424 -1.3125 4.4375 C-1.55613281 5.26121094 -1.79976562 6.08492188 -2.05078125 6.93359375 C-2.36402344 7.61550781 -2.67726562 8.29742187 -3 9 C-3.99 9.33 -4.98 9.66 -6 10 C-4.80100302 6.9168649 -3.52299523 3.93720508 -2 1 C-3.32 0.67 -4.64 0.34 -6 0 C-3.50907189 -1.24546405 -2.58919267 -0.7767578 0 0 Z " fill="#ea1512" transform="translate(147,106)"/>
<path d="M0 0 C0 1.65 0 3.3 0 5 C-1.65614657 5.38218767 -3.32457024 5.71395102 -5 6 C-6 5 -6 5 -6.0625 2.4375 C-6.041875 1.633125 -6.02125 0.82875 -6 0 C-3 -1 -3 -1 0 0 Z M-4 1 C-4 1.99 -4 2.98 -4 4 C-3.34 3.34 -2.68 2.68 -2 2 C-2.66 1.67 -3.32 1.34 -4 1 Z " fill="#ea1512" transform="translate(75,82)"/>
<path d="M0 0 C0.66 0.66 1.32 1.32 2 2 C0.68 2.33 -0.64 2.66 -2 3 C-1.01 3.66 -0.02 4.32 1 5 C1 5.99 1 6.98 1 8 C-1.4375 7.25 -1.4375 7.25 -4 6 C-4.8125 3.875 -4.8125 3.875 -5 2 C-3.35 1.34 -1.7 0.68 0 0 Z " fill="#ea1512" transform="translate(79,150)"/>
<path d="M0 0 C1.98 0 3.96 0 6 0 C4.02 2.31 2.04 4.62 0 7 C-1 3 -1 3 0 0 Z " fill="#ea1512" transform="translate(137,116)"/>
<path d="M0 0 C-1.05078125 1.51953125 -1.05078125 1.51953125 -3 3 C-6.35546875 3.07421875 -6.35546875 3.07421875 -10.1875 2.6875 C-11.45980469 2.56761719 -12.73210937 2.44773438 -14.04296875 2.32421875 C-15.01878906 2.21722656 -15.99460938 2.11023438 -17 2 C-17 1.67 -17 1.34 -17 1 C-5.47835991 -0.14806378 -5.47835991 -0.14806378 0 0 Z " fill="#ea1512" transform="translate(162,134)"/>
<path d="M0 0 C0.99 0 1.98 0 3 0 C3 2.97 3 5.94 3 9 C2.01 9.495 2.01 9.495 1 10 C0.34 9.67 -0.32 9.34 -1 9 C-0.4740625 7.329375 -0.4740625 7.329375 0.0625 5.625 C1.37239331 2.19735524 1.37239331 2.19735524 0 0 Z " fill="#ea1512" transform="translate(59,100)"/>
<path d="M0 0 C0.66 0.33 1.32 0.66 2 1 C-0.475 5.455 -0.475 5.455 -3 10 C-3.66 10 -4.32 10 -5 10 C-3.84414715 6.08788267 -2.64465038 3.1254959 0 0 Z " fill="#ea1512" transform="translate(141,96)"/>
<path d="M0 0 C0.66 0 1.32 0 2 0 C1.814375 1.093125 1.62875 2.18625 1.4375 3.3125 C0.7421932 6.93624133 0.7421932 6.93624133 2 10 C-0.475 9.01 -0.475 9.01 -3 8 C-2.505 7.236875 -2.01 6.47375 -1.5 5.6875 C0.24368308 3.07636249 0.24368308 3.07636249 0 0 Z " fill="#ea1512" transform="translate(59,90)"/>
<path d="M0 0 C-0.350625 0.598125 -0.70125 1.19625 -1.0625 1.8125 C-2.33304698 4.10813214 -2.33304698 4.10813214 -1 7 C-3.475 6.01 -3.475 6.01 -6 5 C-3.74193548 0 -3.74193548 0 0 0 Z " fill="#ea1512" transform="translate(60,83)"/>
<path d="M0 0 C0.66 0.33 1.32 0.66 2 1 C-0.87164566 3.70272533 -2.30991841 4.94791837 -6.3125 5.25 C-7.199375 5.1675 -8.08625 5.085 -9 5 C-6.06626269 3.04417512 -3.21783702 1.43775696 0 0 Z " fill="#ea1512" transform="translate(129,97)"/>
<path d="M0 0 C0 0.66 0 1.32 0 2 C-3.3 2.33 -6.6 2.66 -10 3 C-6.1865669 0.45771127 -4.5252563 -0.11908569 0 0 Z " fill="#ea1512" transform="translate(144,93)"/>
<path d="M0 0 C1.32 0.33 2.64 0.66 4 1 C3.67 1.99 3.34 2.98 3 4 C3.99 4.33 4.98 4.66 6 5 C4.68 5.33 3.36 5.66 2 6 C1.34 4.02 0.68 2.04 0 0 Z " fill="#ea1512" transform="translate(108,153)"/>
<path d="M0 0 C-0.33 0.99 -0.66 1.98 -1 3 C-5.455 2.01 -5.455 2.01 -10 1 C-10 0.67 -10 0.34 -10 0 C-2.25 -1.125 -2.25 -1.125 0 0 Z " fill="#ea1512" transform="translate(173,133)"/>
<path d="M0 0 C0.66 0 1.32 0 2 0 C4.09230769 4.43076923 4.09230769 4.43076923 3.625 7.3125 C3.41875 7.869375 3.2125 8.42625 3 9 C0.70620251 5.55930376 0 4.27709699 0 0 Z " fill="#ea1512" transform="translate(58,124)"/>
</svg>
</svg>